# xmcd
#
# Track frame offsets: 
#        150
#        28965
#        53741
#        73024
#        90813
#        110014
#        130743
#        161340
#        183576
#        215949
#        239573
#        273298
#
# Disc length: 4325 seconds
#
# Revision: 1
# Processed by: cddbd v1.5.2PL0 Copyright (c) Steve Scherf et al.
# Submitted via: ExactAudioCopy v0.99pb5
#
DISCID=ad10e30c
DTITLE=Various Artist - Everyone goes to Agharta
DYEAR=2001
DGENRE=Jazz
TTITLE0=Roman Pokorny Trio - Blue Point
TTITLE1=Hotline - Wild Roses
TTITLE2=Frantisek Kop Quartet - Dewey
TTITLE3=Laco Deczi and Cellula New York - Adamek
TTITLE4=The Veleband Big Band - Caravan
TTITLE5=Karel Ruzicka Trio - Bears Trail
TTITLE6=Zuzana Dumkova Group - Smile of Amaranta
TTITLE7=Vibe Fantasy - Devil's Stones
TTITLE8=Mark AanderudTrio - Sambamba
TTITLE9=Saxtime - Call Me Again
TTITLE10=Marcel Barta and Muff - Dream Place
TTITLE11=Naima - Agharta 91
EXTD=YEAR: 2001
EXTT0=
EXTT1=
EXTT2=
EXTT3=
EXTT4=
EXTT5=
EXTT6=
EXTT7=
EXTT8=
EXTT9=
EXTT10=
EXTT11=
PLAYORDER=
